<svg width="145" height="62" viewBox="0 0 145 62" fill="none" xmlns="http://www.w3.org/2000/svg">
<g clip-path="url(#clip0_347_19148)">
<path d="M0.155273 53.2754C0.298055 52.6829 0.487545 52.1643 0.57662 51.6291C1.94158 43.4279 3.29247 35.2245 4.64871 27.0219C5.58624 21.3518 6.52669 15.6821 7.46819 10.0126C7.48829 9.89152 7.53696 9.77517 7.59106 9.59375C9.8964 9.77135 12.1807 9.95296 14.4663 10.1168C14.7796 10.1393 15.0993 10.0736 15.4432 10.065C15.4747 10.7703 15.4791 11.4594 15.4835 12.1486C14.2252 12.1486 12.9668 12.1486 11.6409 12.1486C10.8915 26.3255 10.1467 40.4174 9.39573 54.6234C21.589 52.4226 33.7892 51.2073 46.1395 50.8934C46.2051 50.9779 46.2067 51.0104 46.2084 51.0429C42.4122 51.4576 38.5972 51.7482 34.8241 52.315C28.5255 53.2613 22.2462 54.3419 15.9741 55.4514C13.006 55.9764 10.0711 56.6892 7.12652 57.3413C6.60413 57.457 6.24383 57.4123 5.8365 56.993C4.30804 55.4193 2.46256 54.3927 0.209581 54.0932C0.155273 53.8703 0.155273 53.6058 0.155273 53.2754ZM6.84388 49.4452C7.6267 36.4251 8.40953 23.4051 9.1949 10.3426C8.75708 10.3426 8.40895 10.3426 7.9922 10.3426C5.94821 24.514 3.9078 38.6605 1.86153 52.8477C2.21766 52.9663 2.52728 53.0694 2.89335 53.1913C3.74291 48.8662 4.58098 44.5996 5.41904 40.333C5.59293 40.5663 5.60379 40.7702 5.59133 40.9728C5.34357 44.9989 5.09328 49.0249 4.84312 53.0509C4.76261 54.3467 5.17185 54.9511 6.4915 55.4398C6.6078 53.4829 6.72341 51.5377 6.84388 49.4452Z" fill="#1C5098"/>
<path d="M6.86211 62.1547C6.8181 61.5398 6.80956 60.925 6.80832 60.3101C6.80594 59.1246 6.80293 59.1061 7.98565 58.8084C14.5439 57.1576 21.1553 55.7538 27.8491 54.7712C32.9816 54.0179 38.1157 53.2509 43.2704 52.68C47.9908 52.1571 52.7397 51.8889 57.5535 51.5664C57.624 51.7448 57.6169 51.8653 57.6099 51.9857C46.9793 52.9162 36.4539 54.557 26.0664 56.9606C20.0935 58.3427 14.2061 60.0905 8.28091 61.676C7.85799 61.7892 7.44044 61.9223 6.99941 62.1004C6.97842 62.1547 6.90088 62.1547 6.86211 62.1547Z" fill="#F05D21"/>
<path d="M15.5064 12.2201C15.479 11.4592 15.4746 10.7701 15.4704 10.0185C15.4625 5.90505 17.2418 2.91787 20.8983 1.11293C21.7154 0.709574 22.6507 0.543084 23.552 0.210919C24.248 0.154297 24.9236 0.154297 25.6714 0.154297C26.0476 0.242659 26.3473 0.352187 26.6566 0.416198C31.0578 1.32714 34.1397 5.06417 34.1479 9.52845C34.1512 11.3333 34.1348 13.1384 34.105 14.943C34.0935 15.6425 34.2538 16.2264 34.7777 16.7462C35.4254 17.3887 35.3202 18.3343 34.6147 18.9954C33.9849 19.5855 32.9135 19.5995 32.2871 19.0258C31.6046 18.4007 31.5979 17.4877 32.0979 16.7436C32.4341 16.2432 32.6772 15.6165 32.7497 15.0207C32.8542 14.162 32.7661 13.2801 32.7569 12.2743C32.7442 11.9842 32.7348 11.8279 32.7318 11.6031C32.7421 10.6127 32.8135 9.68525 32.7386 8.76967C32.3717 4.27947 28.3753 1.22653 24.26 1.58318C19.5816 1.98863 16.5645 5.64382 16.8547 10.3912C16.8507 11.0479 16.8699 11.6479 16.8892 12.2478C16.89 12.9924 16.9045 13.7373 16.8881 14.4814C16.8693 15.3332 16.903 16.1066 17.5634 16.8207C18.2037 17.5129 17.9595 18.5853 17.2252 19.132C16.5381 19.6434 15.4816 19.5224 14.9089 18.8666C14.3009 18.1702 14.3692 17.283 14.9654 16.5597C15.2503 16.214 15.4822 15.7314 15.5162 15.2938C15.5935 14.2988 15.5335 13.2932 15.5064 12.2201Z" fill="#F16523"/>
<path d="M145.155 19.9915C144.899 20.5253 144.605 20.9851 144.392 21.4796C139.261 33.3911 134.127 45.3014 129.038 57.2306C128.638 58.1682 128.016 57.9248 127.229 57.9248C127.795 56.5904 128.326 55.3228 128.869 54.0603C132.9 44.695 136.934 35.3308 140.966 25.9658C141.799 24.0313 142.66 22.1076 143.444 20.1539C143.793 19.2862 144.474 19.7238 145.086 19.5974C145.155 19.7023 145.155 19.818 145.155 19.9915Z" fill="#BB310F"/>
<path d="M88.9204 44.9115C88.9204 49.2697 88.9204 53.5551 88.9204 57.8767C87.1078 57.8767 85.3833 57.8767 83.5938 57.8767C83.5938 47.5151 83.5938 37.1797 83.5938 26.8014C85.344 26.8014 87.0674 26.8014 88.909 26.8014C88.909 28.0985 88.909 29.3841 88.909 30.5203C89.8218 29.5996 90.6227 28.4847 91.693 27.7677C95.3809 25.2972 100.852 26.433 103.51 30.0936C106.387 34.0545 106.281 40.9581 103.285 44.8262C100.237 48.7606 93.8302 49.3155 90.5051 45.9022C89.9266 45.3083 89.496 44.572 88.9204 43.7983C88.9204 44.1997 88.9204 44.5191 88.9204 44.9115ZM97.3219 42.7539C98.6176 42.0471 99.5278 40.9674 99.7888 39.5541C100.018 38.3115 100.138 36.9764 99.9384 35.7411C99.3016 31.8059 95.1966 29.9356 91.6919 31.8993C89.8928 32.9074 89.0825 34.5511 88.9257 36.5317C88.7395 38.8842 89.23 41.0242 91.3157 42.4458C93.1791 43.7159 95.1893 43.6796 97.3219 42.7539Z" fill="#184D97"/>
<path d="M57.6172 52.057C57.6171 51.8653 57.6242 51.7448 57.6206 51.5648C57.6182 47.6786 57.6298 43.8521 57.6336 40.0255C57.6377 35.916 57.6345 31.8066 57.6345 27.6971C57.6345 27.4206 57.6345 27.1441 57.6345 26.8195C59.4449 26.8195 61.1831 26.8195 62.9697 26.8195C62.9697 28.1253 62.9697 29.4019 62.9697 30.7863C63.1217 30.6809 63.2232 30.6488 63.2544 30.5835C64.8481 27.2476 68.3971 26.0822 71.8011 26.6228C75.938 27.2798 78.7406 30.2221 79.4687 34.7745C79.9573 37.8292 79.7121 40.8164 78.1886 43.6039C75.7006 48.1562 69.2468 49.6496 65.3068 46.5142C64.5258 45.8927 63.9937 44.9619 63.3127 44.0872C63.2052 43.8877 63.1319 43.7746 62.9677 43.5213C63.0007 43.8346 63.0156 43.976 63.0305 44.1173C63.0256 46.4518 63.0206 48.7862 63.0142 51.2383C63.0249 51.4467 63.037 51.5375 63.0492 51.6283C63.0492 53.6764 63.0492 55.7245 63.0492 57.8373C61.232 57.8373 59.4956 57.8373 57.6243 57.8373C57.6243 55.9505 57.6243 54.0394 57.6172 52.057ZM66.826 43.1662C68.2684 43.511 69.71 43.5508 71.076 42.9166C73.2416 41.9112 74.0834 40.0554 74.1819 37.8019C74.2859 35.4231 73.7781 33.2552 71.5523 31.9365C68.6465 30.2148 63.7846 31.2479 63.0884 36.0027C62.5773 39.4937 63.8874 42.0437 66.826 43.1662Z" fill="#184D97"/>
<path d="M125.06 23.6598C125.511 22.4484 125.952 21.2972 126.354 20.1326C126.481 19.7646 126.64 19.6013 127.059 19.6025C132.226 19.6175 137.394 19.6136 142.561 19.6167C142.633 19.6167 142.705 19.6447 142.872 19.6795C142.366 20.8795 141.878 22.0561 141.374 23.2258C136.529 34.4786 131.672 45.7266 126.853 56.9906C126.526 57.754 126.135 57.9969 125.322 57.9704C123.389 57.9074 121.452 57.9501 119.387 57.9501C123.951 47.0385 128.48 36.2072 133.062 25.2512C130.138 25.2512 127.365 25.2512 124.503 25.2512C124.704 24.6722 124.87 24.1935 125.06 23.6598Z" fill="#DA4C29"/>
<path d="M108.727 30.68C108.164 29.383 107.624 28.1407 107.021 26.758C108.265 26.758 109.391 26.7498 110.516 26.7607C111.339 26.7687 112.338 26.5264 112.933 26.9037C113.489 27.2566 113.63 28.2724 113.928 29.007C115.395 32.6252 116.852 36.2473 118.315 39.8672C118.447 40.1949 118.596 40.5158 118.82 41.0277C119.294 39.7804 119.71 38.7008 120.115 37.6175C121.394 34.2026 122.676 30.7889 123.936 27.3674C124.102 26.9187 124.316 26.7332 124.821 26.7452C126.345 26.7811 127.87 26.7561 129.395 26.7605C129.593 26.7611 129.791 26.7945 130.074 26.8205C129.392 28.4688 128.74 30.0515 128.082 31.6313C124.515 40.189 120.942 48.7444 117.389 57.3081C117.203 57.7574 116.989 57.9331 116.494 57.9247C114.769 57.8955 113.043 57.9134 111.171 57.9134C111.758 56.5885 112.288 55.3821 112.827 54.1797C113.773 52.0702 114.745 49.9719 115.653 47.8463C115.8 47.5011 115.8 46.985 115.651 46.6396C113.371 41.329 111.056 36.0336 108.727 30.68Z" fill="#184E97"/>
<path d="M16.9443 47.8308C16.7835 47.6471 16.6206 47.466 16.6204 47.2847C16.6098 38.5997 16.6132 29.9148 16.6166 21.2298C16.6166 21.1811 16.638 21.1324 16.6632 21.0244C22.1871 21.0244 27.7241 21.0244 33.3153 21.0244C33.3153 22.3869 33.3153 23.7596 33.3153 25.207C29.5782 25.207 25.8425 25.207 22.0555 25.207C22.0555 27.628 22.0555 29.9756 22.0555 32.3877C25.0539 32.3877 28.0403 32.3877 31.0842 32.3877C31.0842 33.7719 31.0842 35.0942 31.0842 36.5068C28.1011 36.5068 25.0967 36.5068 22.0187 36.5068C22.0187 40.3068 22.0187 44.0183 22.0187 47.8333C20.3036 47.8333 18.6608 47.8333 16.9443 47.8308Z" fill="#194E97"/>
<path d="M37.7305 19.6845C39.3193 19.6845 40.8355 19.6845 42.3888 19.6845C42.3888 29.1046 42.3888 38.4384 42.3888 47.8197C40.6168 47.8197 38.8733 47.8197 37.0754 47.8197C37.0621 47.5867 37.0382 47.3638 37.0381 47.1409C37.0362 38.2309 37.0388 29.3209 37.0298 20.4109C37.0293 19.9492 37.0341 19.574 37.7305 19.6845Z" fill="#194F97"/>
<path d="M52.7024 32.5427C52.7024 37.6698 52.7024 42.7197 52.7024 47.8136C50.8839 47.8136 49.1431 47.8136 47.3579 47.8136C47.3579 40.8152 47.3579 33.843 47.3579 26.8145C49.1167 26.8145 50.8795 26.8145 52.7024 26.8145C52.7024 28.7267 52.7024 30.5962 52.7024 32.5427Z" fill="#194E97"/>
<path d="M53.3239 21.0652C52.9341 22.709 51.8742 23.5494 50.2244 23.5823C48.4146 23.6184 47.1709 22.8582 46.7912 21.4504C46.5434 20.5316 46.695 19.6731 47.3088 18.9207C48.1786 17.8545 49.9629 17.457 51.4221 17.9997C52.738 18.4891 53.3652 19.4752 53.3239 21.0652Z" fill="#1A4F98"/>
<path d="M16.96 12.2237C16.8698 11.6478 16.8505 11.0479 16.9242 10.3994C20.1738 10.6324 23.3297 10.9234 26.4875 11.1919C28.5653 11.3686 30.6459 11.5129 32.7253 11.6716C32.7346 11.8279 32.744 11.9841 32.7411 12.1981C27.4962 12.2371 22.2635 12.2183 16.96 12.2237Z" fill="#225499"/>
<path d="M66.3811 51.3018C67.807 51.3018 69.233 51.3018 70.6589 51.3018C70.6594 51.3695 70.6598 51.4373 70.6602 51.505C69.2774 51.505 67.8945 51.505 66.4398 51.4498C66.3723 51.3636 66.3767 51.3327 66.3811 51.3018Z" fill="#EB6C3A"/>
<path d="M66.3088 51.3048C66.3765 51.332 66.3721 51.3629 66.3668 51.4406C65.3025 51.535 64.2391 51.5826 63.1124 51.6289C63.037 51.5368 63.0248 51.446 63.0298 51.3125C64.1102 51.2827 65.1735 51.2956 66.3088 51.3048Z" fill="#EB6C3A"/>
<path d="M46.2795 51.0512C46.2066 51.0097 46.2049 50.9772 46.2125 50.8966C47.1523 50.7956 48.0828 50.7425 49.0133 50.6895C49.0166 50.7515 49.0198 50.8136 49.023 50.8756C48.1322 50.9371 47.2415 50.9986 46.2795 51.0512Z" fill="#809DC5"/>
<path d="M63.0723 44.1168C63.0157 43.9751 63.0008 43.8338 62.9678 43.5205C63.132 43.7738 63.2053 43.8869 63.2785 44.0454C63.2236 44.0996 63.1688 44.1084 63.0723 44.1168Z" fill="#D7C2C1"/>
</g>
<defs>
<clipPath id="clip0_347_19148">
<rect width="145" height="62" fill="white"/>
</clipPath>
</defs>
</svg>
